<svg width="1570" height="668" viewBox="0 0 1570 668" fill="none" xmlns="http://www.w3.org/2000/svg">
<path d="M752.926 110.668C751.299 114.848 748.918 118.568 746.802 122.923C744.646 118.759 742.56 114.205 739.453 109.442C733.57 100.424 705.6 58.8278 647.591 44.492C577.795 27.2435 527.569 61.3715 505.512 82.4818C487.839 69.2575 463.354 58.1639 433.248 54.2958C400.594 50.1005 371.362 56.8051 349.96 66.5506C326.826 77.0838 311.141 91.0017 300.967 102.089C298.313 98.308 295.664 94.9343 292.393 91.0602C285.095 82.4151 264.604 59.4098 229.928 45.7174C185.907 28.3352 138.245 32.339 98.8719 54.2958C67.9333 71.5493 50.8383 94.665 44.9799 103.315C37.8108 113.9 33.5937 123.309 31.507 127.825C27.8092 135.825 24.1247 145.467 22.9332 148.658C0.328304 208.833 0.851143 265.419 0.886466 298.166C0.887813 299.421 0.886466 300.66 0.886466 301.842V466.056C0.886466 550.176 68.6895 618.015 152.764 618.015C164.249 618.015 175.077 616.75 185.834 614.338C189.938 618.795 194.188 623.482 199.308 627.818C215.763 641.758 242.115 656.92 276.47 662.133C312.015 667.524 343.68 659.883 368.332 647.427C374.486 644.316 380.284 641.149 385.48 637.622C394.81 643.989 406.027 650.968 419.775 656.004C458.306 670.122 503.186 669.061 543.482 648.653C577.021 631.664 595.559 606.526 603.497 594.731C618.554 572.361 625.653 549.66 627.994 542.036C629.234 537.997 630.219 533.839 631.668 529.78C632.499 531.415 634.408 532.956 635.343 534.683C637.459 538.605 645.411 554.717 659.839 570.222L659.896 570.283C665.427 576.228 688.599 601.135 728.429 613.114C752.158 620.25 784.4 622.923 819.066 611.888C825.118 609.961 830.809 608.228 836.214 605.761C840.237 611.041 853.461 628.11 875.407 642.524C897.402 656.97 961.566 688.356 1033.41 648.653C1089.54 617.632 1105.32 565.414 1108.12 555.516C1111.58 543.289 1112.31 532.27 1113.02 523.653C1115.18 519.987 1118.94 516.13 1122.82 510.173C1123.79 508.686 1123.92 506.099 1125.27 504.046C1127.93 499.992 1132.03 495.28 1135.07 490.566C1150.14 509.594 1162.33 525.905 1171.81 540.81C1172.5 541.889 1173.54 543.341 1174.26 544.486L1174.44 544.764C1180.88 554.904 1188.6 567.04 1197.53 580.025C1197.7 580.35 1197.48 581.137 1197.53 581.251C1198.56 583.228 1200.93 586.522 1203.66 591.055C1205.42 593.986 1212.13 605.995 1223.26 618.015C1228.42 623.599 1242.68 638.179 1264.9 649.877C1288.42 662.258 1338.34 679.735 1395.95 654.78C1448.39 632.064 1469.96 589.181 1476.79 572.672C1484.53 553.985 1487.02 537.866 1487.82 531.006C1491.64 498.001 1489.72 466.488 1489.04 446.448C1489 445.259 1489.08 443.876 1489.04 442.772C1488.89 438.337 1489.13 435.313 1489.04 431.742C1518.67 415.663 1537.46 392.56 1546.61 377.822C1559.87 356.457 1564.58 336.293 1566.21 328.803C1569.78 312.362 1569.88 299.416 1569.88 295.714C1569.88 278.066 1566.83 261.235 1561.31 245.47V243.02C1561.31 235.741 1560.22 221.269 1556.41 203.804C1556.37 203.647 1556.46 202.805 1556.41 202.578L1556.4 202.533C1554.48 193.49 1541.79 133.686 1479.24 99.6384C1398.92 55.9071 1329.37 99.132 1316.34 108.217C1297.87 121.086 1286.57 136.082 1283.27 140.079C1278.46 145.929 1275.24 151.073 1273.47 153.559C1272.65 154.721 1271.64 156.365 1271.02 157.236C1265.85 162.959 1261.42 167.718 1257.55 173.166C1256.78 171.435 1255.98 170.051 1255.1 168.265C1247.27 152.346 1223.39 112.732 1171.81 92.2856C1118.07 70.9784 1071.51 84.6793 1044.43 98.4129C1039.4 85.1761 1030.84 68.7251 1017.49 53.0703C986.167 16.362 939.566 -2.98391 891.33 0.374843C853.083 3.03808 826.664 19.3376 816.617 26.1098C804.541 34.2492 796.407 42.4949 792.12 46.943C778.51 61.0634 770.174 75.2554 768.848 77.5799C765.947 82.5883 763.07 86.5924 761.499 89.8346C758.25 96.5438 755.489 104.076 752.926 110.668Z" fill="#ECE6FF"/>
<path d="M1267.35 160.912C1267.36 160.879 1267.96 160.478 1268.57 159.686C1267.92 160.61 1267.34 160.945 1267.35 160.912Z" fill="#ECE6FF"/>
</svg>
